# xmcd CD database file
#
# Track frame offsets:
#	150
#	5508
#	13323
#	19624
#	27455
#	33750
#	42762
#	48527
#	58701
#	66325
#	74296
#	85284
#	92327
#	102225
#	110971
#	122188
#	129905
#	138147
#	146384
#	158573
#	168042
#	176459
#	184411
#	188494
#
# Disc length: 2596 seconds
#
# Revision: 0
# Processed by: cddbd v1.4PL0 Copyright (c) Steve Scherf et al.
# Submitted via: CDex 1.50
#
DISCID=3d0a2218
DTITLE=Mark Campbell - Deep Roots
DYEAR=2002
DGENRE=Old Time
TTITLE0=Shelvin Rock
TTITLE1=Nubbin Ridge
TTITLE2=Zolly's Retreat
TTITLE3=Cumberland Gap
TTITLE4=Melvin's Bonaparte's Retreat
TTITLE5=Rocky Road to Dublin
TTITLE6=Glory in the Meeting House
TTITLE7=Lady Hamilton
TTITLE8=Billy in the Lowground
TTITLE9=Yew Piney Mountain
TTITLE10=Haley's Bonaparte's Retreat
TTITLE11=Sandy River
TTITLE12=Piney Ridge
TTITLE13=Dr. Humphrey's Jig
TTITLE14=Lost Indian
TTITLE15=Green River
TTITLE16=Old Time Polly Put the Kettle On
TTITLE17=Camp Chase
TTITLE18=Jack of Diamonds
TTITLE19=Bluegrass Meadows
TTITLE20=Old Christmas Morning
TTITLE21=The Wounded Hoosier
TTITLE22=Ways of the World
TTITLE23=The Rebel's Raid
EXTD=YEAR: 2002
EXTT0=
EXTT1=
EXTT2=
EXTT3=
EXTT4=
EXTT5=
EXTT6=
EXTT7=
EXTT8=
EXTT9=
EXTT10=
EXTT11=
EXTT12=
EXTT13=
EXTT14=
EXTT15=
EXTT16=
EXTT17=
EXTT18=
EXTT19=
EXTT20=
EXTT21=
EXTT22=
EXTT23=
PLAYORDER=
